<?xml version="1.0" standalone="no"?>
<!DOCTYPE svg PUBLIC "-//W3C//DTD SVG 20010904//EN"
 "http://www.w3.org/TR/2001/REC-SVG-20010904/DTD/svg10.dtd">
<svg version="1.0" xmlns="http://www.w3.org/2000/svg"
 width="400.000000pt" height="400.000000pt" viewBox="0 0 400.000000 400.000000"
 preserveAspectRatio="xMidYMid meet">
<metadata>
Created by potrace 1.11, written by Peter Selinger 2001-2013
</metadata>
<g transform="translate(0.000000,400.000000) scale(0.100000,-0.100000)"
fill="#000000" stroke="none">
<path d="M1648 3995 c-2 -1 -28 -6 -58 -9 -55 -7 -64 -9 -178 -46 -86 -28
-204 -88 -282 -145 -78 -56 -197 -179 -251 -257 -41 -59 -118 -207 -124 -237
-2 -9 -10 -34 -18 -56 -40 -105 -52 -225 -45 -435 0 -13 7 -48 22 -123 5 -22
17 -72 26 -107 26 -99 63 -250 71 -285 9 -41 42 -172 55 -212 5 -18 2 -23 -12
-24 -11 0 -28 -2 -39 -4 -11 -2 -37 -6 -58 -10 -52 -8 -124 -46 -169 -90 -36
-34 -87 -110 -92 -137 -2 -7 -6 -20 -10 -28 -3 -9 -5 -351 -4 -760 l3 -745 24
-49 c32 -64 103 -135 166 -165 28 -13 58 -28 67 -33 19 -9 2472 -6 2498 3 124
44 228 153 256 269 10 39 11 1390 1 1444 -21 118 -94 214 -207 269 l-65 32
-974 5 -975 5 -18 70 c-10 39 -20 79 -22 90 -2 11 -21 85 -41 165 -37 146 -41
163 -50 201 -2 12 -16 67 -31 123 -40 155 -38 305 5 429 97 277 355 461 646
461 171 0 341 -72 470 -199 96 -94 151 -194 191 -345 46 -177 95 -365 118
-453 40 -154 93 -185 251 -146 90 23 117 43 141 104 16 42 15 43 -46 281 -82
319 -98 381 -116 434 -21 62 -85 188 -131 257 -46 69 -167 194 -243 250 -48
36 -201 127 -208 124 -1 -1 -18 6 -38 14 -20 8 -42 15 -49 15 -6 0 -15 3 -19
7 -3 4 -12 8 -19 9 -7 1 -30 6 -52 12 -22 6 -53 14 -70 17 -31 6 -291 15 -297
10z"/>
</g>
</svg>
